<svg width="720" height="900" viewBox="0 0 720 900" fill="none" xmlns="http://www.w3.org/2000/svg">
  <defs>
    <linearGradient id="bg" x1="90" y1="60" x2="650" y2="820" gradientUnits="userSpaceOnUse">
      <stop stop-color="#0B0B14"/>
      <stop offset="0.55" stop-color="#07070A"/>
      <stop offset="1" stop-color="#0B0B12"/>
    </linearGradient>

    <linearGradient id="edge" x1="90" y1="120" x2="650" y2="740" gradientUnits="userSpaceOnUse">
      <stop stop-color="#46F3FF" stop-opacity="0.85"/>
      <stop offset="0.5" stop-color="#FF3DF2" stop-opacity="0.75"/>
      <stop offset="1" stop-color="#FFE95C" stop-opacity="0.65"/>
    </linearGradient>

    <filter id="glow" x="-60" y="-60" width="840" height="1020" filterUnits="userSpaceOnUse" color-interpolation-filters="sRGB">
      <feGaussianBlur stdDeviation="10" result="blur"/>
      <feColorMatrix in="blur" type="matrix"
        values="1 0 0 0 0
                0 1 0 0 0
                0 0 1 0 0
                0 0 0 0.8 0"/>
      <feMerge>
        <feMergeNode/>
        <feMergeNode in="SourceGraphic"/>
      </feMerge>
    </filter>

    <filter id="softShadow" x="-40" y="-40" width="800" height="1000" filterUnits="userSpaceOnUse" color-interpolation-filters="sRGB">
      <feDropShadow dx="0" dy="24" stdDeviation="18" flood-color="#000000" flood-opacity="0.65"/>
    </filter>

    <linearGradient id="shine" x1="120" y1="120" x2="420" y2="820" gradientUnits="userSpaceOnUse">
      <stop stop-color="#FFFFFF" stop-opacity="0.10"/>
      <stop offset="0.35" stop-color="#FFFFFF" stop-opacity="0.02"/>
      <stop offset="1" stop-color="#FFFFFF" stop-opacity="0.00"/>
    </linearGradient>
  </defs>

  <!-- Bag silhouette -->
  <g filter="url(#softShadow)">
    <path d="M168 90C160 62 184 38 214 38H506C536 38 560 62 552 90L536 150C528 178 526 206 530 234L566 792C570 846 528 892 472 892H248C192 892 150 846 154 792L190 234C194 206 192 178 184 150L168 90Z" fill="url(#bg)"/>
  </g>

  <!-- Neon edge frame -->
  <g filter="url(#glow)">
    <path d="M200 160C198 138 214 120 236 120H484C506 120 522 138 520 160L546 792C550 826 524 854 490 854H230C196 854 170 826 174 792L200 160Z"
      stroke="url(#edge)" stroke-width="6" opacity="0.75"/>
  </g>

  <!-- Inner panel -->
  <path d="M220 196C218 174 234 156 256 156H464C486 156 502 174 500 196L520 770C522 798 500 822 472 822H248C220 822 198 798 200 770L220 196Z"
    fill="rgba(255,255,255,0.03)" stroke="rgba(255,255,255,0.10)" stroke-width="1.5"/>

  <!-- Shine -->
  <path d="M250 170H330C360 170 378 194 374 224L344 760C340 788 316 810 288 810H240L250 170Z" fill="url(#shine)"/>

  <!-- Label text -->
  <text x="360" y="300" text-anchor="middle" font-family="Arial, Helvetica, sans-serif" font-size="34" font-weight="900" fill="#46F3FF" opacity="0.95">
    SONECA
  </text>
  <text x="360" y="342" text-anchor="middle" font-family="Arial, Helvetica, sans-serif" font-size="30" font-weight="900" fill="#FF3DF2" opacity="0.95">
    DROPS
  </text>

  <text x="360" y="398" text-anchor="middle" font-family="Arial, Helvetica, sans-serif" font-size="14" font-weight="700" fill="rgba(255,255,255,0.80)">
    86+ Specialty Coffee
  </text>
  <text x="360" y="420" text-anchor="middle" font-family="Arial, Helvetica, sans-serif" font-size="12" font-weight="700" fill="rgba(255,255,255,0.64)">
    Drop culture. No fluff.
  </text>

  <!-- Neon "barcode" lines -->
  <g opacity="0.75">
    <rect x="260" y="465" width="200" height="2" fill="#46F3FF" opacity="0.35"/>
    <rect x="260" y="476" width="160" height="2" fill="#FF3DF2" opacity="0.30"/>
    <rect x="260" y="487" width="190" height="2" fill="#FFE95C" opacity="0.30"/>
  </g>

  <!-- Bottom mini specs -->
  <g opacity="0.85">
    <text x="240" y="770" font-family="Arial, Helvetica, sans-serif" font-size="11" font-weight="700" fill="rgba(255,255,255,0.65)">
      250g
    </text>
    <text x="360" y="770" text-anchor="middle" font-family="Arial, Helvetica, sans-serif" font-size="11" font-weight="700" fill="rgba(255,255,255,0.65)">
      Roasted in France
    </text>
    <text x="480" y="770" text-anchor="end" font-family="Arial, Helvetica, sans-serif" font-size="11" font-weight="700" fill="rgba(255,255,255,0.65)">
      Limited Drop
    </text>
  </g>
</svg>
